<?xml version="1.0" encoding="utf-8"?>
<!-- Generator: Adobe Illustrator 21.0.0, SVG Export Plug-In . SVG Version: 6.00 Build 0)  -->
<svg version="1.1" id="BACKGROUND" xmlns="http://www.w3.org/2000/svg" xmlns:xlink="http://www.w3.org/1999/xlink" x="0px" y="0px"
	 viewBox="0 0 649 422" style="enable-background:new 0 0 649 422;" xml:space="preserve">
<style type="text/css">
	.st0{fill:#FFF1E7;}
	.st1{fill:url(#SVGID_1_);}
	.st2{fill:url(#SVGID_2_);}
	.st3{fill:url(#SVGID_3_);}
	.st4{fill:url(#SVGID_4_);}
	.st5{fill:url(#SVGID_5_);}
	.st6{fill:url(#SVGID_6_);}
	.st7{fill:url(#SVGID_7_);}
	.st8{fill:url(#SVGID_8_);}
	.st9{fill:url(#SVGID_9_);}
	.st10{fill:url(#SVGID_10_);}
	.st11{fill:url(#SVGID_11_);}
	.st12{fill:url(#SVGID_12_);}
	.st13{fill:url(#SVGID_13_);}
	.st14{fill:url(#SVGID_14_);}
	.st15{fill:url(#SVGID_15_);}
	.st16{fill:url(#SVGID_16_);}
	.st17{fill:url(#SVGID_17_);}
	.st18{fill:url(#SVGID_18_);}
	.st19{fill:#FAEAD9;}
	.st20{fill:url(#SVGID_19_);}
	.st21{fill:url(#SVGID_20_);}
	.st22{fill:url(#SVGID_21_);}
	.st23{fill:url(#SVGID_22_);}
	.st24{fill:url(#SVGID_23_);}
	.st25{fill:url(#SVGID_24_);}
	.st26{fill:url(#SVGID_25_);}
	.st27{fill:#FFF1E4;}
	.st28{fill:url(#SVGID_26_);}
	.st29{fill:url(#SVGID_27_);}
	.st30{fill:url(#SVGID_28_);}
	.st31{fill:#A89382;}
	.st32{fill:#FEFDFE;}
	.st33{fill:url(#SVGID_29_);}
	.st34{opacity:0.4;}
	.st35{opacity:0.3;}
	.st36{fill:url(#SVGID_30_);}
	.st37{fill:url(#SVGID_31_);}
	.st38{fill:url(#SVGID_32_);}
	.st39{fill:url(#SVGID_33_);}
	.st40{fill:url(#SVGID_34_);}
	.st41{opacity:0.6;fill:#FEFEFE;}
	.st42{fill:none;stroke:#FFFFFF;stroke-width:0.75;stroke-miterlimit:10;}
	.st43{opacity:0.4;fill:url(#SVGID_35_);}
</style>
<g>
	<polygon class="st0" points="4,146.6 47.3,156.9 321.8,411.9 	"/>
	<linearGradient id="SVGID_1_" gradientUnits="userSpaceOnUse" x1="231.5532" y1="416.3668" x2="117.5537" y2="96.3673">
		<stop  offset="0.1104" style="stop-color:#E9C38E"/>
		<stop  offset="0.8168" style="stop-color:#BA894D"/>
	</linearGradient>
	<polygon class="st1" points="47.3,156.9 135.8,167.9 321.8,411.9 	"/>
	<linearGradient id="SVGID_2_" gradientUnits="userSpaceOnUse" x1="206.9326" y1="191.181" x2="330.9326" y2="423.1812">
		<stop  offset="0.2366" style="stop-color:#F6C68D"/>
		<stop  offset="0.7681" style="stop-color:#FFF1E7"/>
	</linearGradient>
	<polygon class="st2" points="135.8,167.9 254.8,170.9 321.8,411.9 	"/>
	<linearGradient id="SVGID_3_" gradientUnits="userSpaceOnUse" x1="321.5383" y1="172.9882" x2="321.5383" y2="346.9787">
		<stop  offset="0.2366" style="stop-color:#FFF5F8"/>
		<stop  offset="0.7681" style="stop-color:#FFEED4"/>
	</linearGradient>
	<polygon class="st3" points="254.8,170.9 388.3,170.9 321.8,411.9 	"/>
	<linearGradient id="SVGID_4_" gradientUnits="userSpaceOnUse" x1="524.7573" y1="-23.7219" x2="406.757" y2="274.2794">
		<stop  offset="0.1638" style="stop-color:#C77272"/>
		<stop  offset="0.813" style="stop-color:#E9B77D"/>
	</linearGradient>
	<polygon class="st4" points="321.8,411.9 508.3,167.9 388.3,170.9 	"/>
	<linearGradient id="SVGID_5_" gradientUnits="userSpaceOnUse" x1="321.7883" y1="284.3949" x2="596.7883" y2="284.3949">
		<stop  offset="0.2366" style="stop-color:#E9C38E"/>
		<stop  offset="0.7681" style="stop-color:#FFEED4"/>
	</linearGradient>
	<polygon class="st5" points="508.3,167.9 596.8,156.9 321.8,411.9 	"/>
	<linearGradient id="SVGID_6_" gradientUnits="userSpaceOnUse" x1="341.6785" y1="398.8021" x2="637.6789" y2="134.8018">
		<stop  offset="0.2366" style="stop-color:#E9C38E"/>
		<stop  offset="0.7681" style="stop-color:#FFEED4"/>
	</linearGradient>
	<polygon class="st6" points="596.8,156.9 639.1,147.9 321.8,411.9 	"/>
	<linearGradient id="SVGID_7_" gradientUnits="userSpaceOnUse" x1="5.5685" y1="99.2284" x2="117.1223" y2="99.2284">
		<stop  offset="0.2366" style="stop-color:#E9C38E"/>
		<stop  offset="0.7681" style="stop-color:#FFEED4"/>
	</linearGradient>
	<polygon class="st7" points="5.6,131.8 117.1,55.6 47.3,142.9 	"/>
	<linearGradient id="SVGID_8_" gradientUnits="userSpaceOnUse" x1="36.561" y1="207.4894" x2="152.5613" y2="73.489">
		<stop  offset="0.1638" style="stop-color:#C77272"/>
		<stop  offset="0.813" style="stop-color:#E9B77D"/>
	</linearGradient>
	<polygon class="st8" points="135.8,151.7 117.1,55.6 47.3,142.9 	"/>
	<linearGradient id="SVGID_9_" gradientUnits="userSpaceOnUse" x1="125.1023" y1="113.4449" x2="197.0996" y2="57.9472">
		<stop  offset="0.2366" style="stop-color:#FFF5F8"/>
		<stop  offset="0.7681" style="stop-color:#FFEED4"/>
	</linearGradient>
	<polygon class="st9" points="117.1,55.6 272.5,63.9 135.8,151.7 	"/>
	<linearGradient id="SVGID_10_" gradientUnits="userSpaceOnUse" x1="135.7883" y1="110.3949" x2="272.4553" y2="110.3949">
		<stop  offset="0.2366" style="stop-color:#E9C38E"/>
		<stop  offset="0.7681" style="stop-color:#FFEED4"/>
	</linearGradient>
	<polygon class="st10" points="256.1,156.9 272.5,63.9 135.8,151.7 	"/>
	<linearGradient id="SVGID_11_" gradientUnits="userSpaceOnUse" x1="256.1223" y1="110.3949" x2="388.2883" y2="110.3949">
		<stop  offset="0.2366" style="stop-color:#E9C38E"/>
		<stop  offset="0.7681" style="stop-color:#FFEED4"/>
	</linearGradient>
	<polygon class="st11" points="272.5,63.9 388.3,156.9 256.1,156.9 	"/>
	<linearGradient id="SVGID_12_" gradientUnits="userSpaceOnUse" x1="362.2953" y1="140.0693" x2="368.2954" y2="36.5745">
		<stop  offset="0.2366" style="stop-color:#FFF5F8"/>
		<stop  offset="0.7681" style="stop-color:#FFEED4"/>
	</linearGradient>
	<polygon class="st12" points="272.5,63.9 461.1,61.2 388.3,156.9 	"/>
	<linearGradient id="SVGID_13_" gradientUnits="userSpaceOnUse" x1="362.2953" y1="140.0693" x2="368.2954" y2="36.5745">
		<stop  offset="0.2366" style="stop-color:#FFF5F8"/>
		<stop  offset="0.7681" style="stop-color:#FFEED4"/>
	</linearGradient>
	<polygon class="st13" points="272.5,63.9 461.1,61.2 388.3,156.9 	"/>
	<linearGradient id="SVGID_14_" gradientUnits="userSpaceOnUse" x1="388.2883" y1="109.0617" x2="508.2883" y2="109.0617">
		<stop  offset="0.2366" style="stop-color:#E9C38E"/>
		<stop  offset="0.7681" style="stop-color:#FFEED4"/>
	</linearGradient>
	<polygon class="st14" points="461.1,61.2 508.3,151.7 388.3,156.9 	"/>
	<linearGradient id="SVGID_15_" gradientUnits="userSpaceOnUse" x1="461.1223" y1="106.4792" x2="596.7883" y2="106.4792">
		<stop  offset="0.2366" style="stop-color:#E9C38E"/>
		<stop  offset="0.7681" style="stop-color:#FFEED4"/>
	</linearGradient>
	<polygon class="st15" points="461.1,61.2 596.8,142.9 508.3,151.7 	"/>
	<linearGradient id="SVGID_16_" gradientUnits="userSpaceOnUse" x1="461.1223" y1="96.3949" x2="596.7883" y2="96.3949">
		<stop  offset="0.2366" style="stop-color:#E9C38E"/>
		<stop  offset="0.7681" style="stop-color:#FFEED4"/>
	</linearGradient>
	<polygon class="st16" points="461.1,61.2 561.1,49.9 596.8,142.9 	"/>
	<linearGradient id="SVGID_17_" gradientUnits="userSpaceOnUse" x1="561.1183" y1="96.3949" x2="639.1183" y2="96.3949">
		<stop  offset="0.2366" style="stop-color:#E9C38E"/>
		<stop  offset="0.7681" style="stop-color:#FFEED4"/>
	</linearGradient>
	<polygon class="st17" points="561.1,49.9 596.8,142.9 639.1,132.6 	"/>
	<linearGradient id="SVGID_18_" gradientUnits="userSpaceOnUse" x1="561.1183" y1="96.3949" x2="639.1183" y2="96.3949">
		<stop  offset="0" style="stop-color:#B5A18B"/>
		<stop  offset="1" style="stop-color:#FFFFFF;stop-opacity:0"/>
	</linearGradient>
	<polygon class="st18" points="561.1,49.9 596.8,142.9 639.1,132.6 	"/>
	<polygon class="st19" points="87.1,41.2 117.1,55.6 5.6,131.8 9,124.9 	"/>
	<linearGradient id="SVGID_19_" gradientUnits="userSpaceOnUse" x1="198.486" y1="-3.123" x2="194.486" y2="64.8771">
		<stop  offset="0.1638" style="stop-color:#C77272"/>
		<stop  offset="0.813" style="stop-color:#E9B77D"/>
	</linearGradient>
	<polygon class="st20" points="117.1,55.6 231.1,27.9 272.5,63.9 	"/>
	<linearGradient id="SVGID_20_" gradientUnits="userSpaceOnUse" x1="231.1213" y1="45.8949" x2="354.4543" y2="45.8949">
		<stop  offset="0.2366" style="stop-color:#E9C38E"/>
		<stop  offset="0.7681" style="stop-color:#FFEED4"/>
	</linearGradient>
	<polygon class="st21" points="231.1,27.9 354.5,29.6 272.5,63.9 	"/>
	<linearGradient id="SVGID_21_" gradientUnits="userSpaceOnUse" x1="373.9706" y1="-5.6647" x2="365.9706" y2="70.3352">
		<stop  offset="0.1638" style="stop-color:#C77272"/>
		<stop  offset="0.813" style="stop-color:#E9B77D"/>
	</linearGradient>
	<polygon class="st22" points="272.5,63.9 354.5,29.6 461.1,61.2 	"/>
	<linearGradient id="SVGID_22_" gradientUnits="userSpaceOnUse" x1="354.4543" y1="43.0617" x2="461.1223" y2="43.0617">
		<stop  offset="0.2366" style="stop-color:#E9C38E"/>
		<stop  offset="0.7681" style="stop-color:#FFEED4"/>
	</linearGradient>
	<polygon class="st23" points="354.5,29.6 457.8,24.9 461.1,61.2 	"/>
	<linearGradient id="SVGID_23_" gradientUnits="userSpaceOnUse" x1="504.1113" y1="13.5074" x2="516.1111" y2="85.5067">
		<stop  offset="0.1638" style="stop-color:#C59785"/>
		<stop  offset="0.813" style="stop-color:#E9B77D"/>
	</linearGradient>
	<polygon class="st24" points="457.8,24.9 561.1,49.9 461.1,61.2 	"/>
	<linearGradient id="SVGID_24_" gradientUnits="userSpaceOnUse" x1="457.7883" y1="32.8949" x2="561.1183" y2="32.8949">
		<stop  offset="0.2366" style="stop-color:#E9C38E"/>
		<stop  offset="0.7681" style="stop-color:#FFEED4"/>
	</linearGradient>
	<polygon class="st25" points="457.8,24.9 479.8,15.9 561.1,49.9 	"/>
	<linearGradient id="SVGID_25_" gradientUnits="userSpaceOnUse" x1="117.1223" y1="37.5583" x2="231.1213" y2="37.5583">
		<stop  offset="0.2366" style="stop-color:#E9C38E"/>
		<stop  offset="0.7681" style="stop-color:#FFEED4"/>
	</linearGradient>
	<polygon class="st26" points="117.1,55.6 162.9,19.6 231.1,27.9 	"/>
	<polygon class="st19" points="117.1,55.6 162.9,19.6 87.1,41.2 	"/>
	<polygon class="st19" points="162.9,19.6 231.1,27.9 354.5,29.6 457.8,24.9 479.8,15.9 412.5,8.6 305.8,8.6 190.5,11.2 	"/>
	<polygon class="st27" points="47.3,142.9 47.3,156.9 135.8,167.9 135.8,151.7 	"/>
	<linearGradient id="SVGID_26_" gradientUnits="userSpaceOnUse" x1="596.7883" y1="144.7299" x2="639.1183" y2="144.7299">
		<stop  offset="0.2366" style="stop-color:#FFF7F6"/>
		<stop  offset="0.327" style="stop-color:#A28C74"/>
		<stop  offset="0.6481" style="stop-color:#FFEFEF"/>
	</linearGradient>
	<polygon class="st28" points="596.8,142.9 596.8,156.9 639.1,147.9 639.1,132.6 	"/>
	<linearGradient id="SVGID_27_" gradientUnits="userSpaceOnUse" x1="4.0383" y1="144.1449" x2="47.2883" y2="144.1449">
		<stop  offset="0.2366" style="stop-color:#FFF7F6"/>
		<stop  offset="0.327" style="stop-color:#A28C74"/>
		<stop  offset="0.6481" style="stop-color:#FFEFEF"/>
	</linearGradient>
	<polygon class="st29" points="4,131.4 4,146.6 47.3,156.9 47.3,142.9 	"/>
	<linearGradient id="SVGID_28_" gradientUnits="userSpaceOnUse" x1="135.7883" y1="161.3124" x2="256.1223" y2="161.3124">
		<stop  offset="0.2366" style="stop-color:#FFF7F6"/>
		<stop  offset="0.289" style="stop-color:#F1D2A7"/>
		<stop  offset="0.327" style="stop-color:#A28C74"/>
		<stop  offset="0.6481" style="stop-color:#FFEFEF"/>
	</linearGradient>
	<polygon class="st30" points="254.8,156.9 135.8,151.7 135.8,167.9 254.8,170.9 256.1,170.9 256.1,156.9 	"/>
	<polygon class="st31" points="509.5,151.6 509.5,167.7 596.8,156.9 596.8,142.9 	"/>
	<rect x="256.1" y="156.9" class="st32" width="132.2" height="14"/>
	<linearGradient id="SVGID_29_" gradientUnits="userSpaceOnUse" x1="388.2883" y1="161.2543" x2="509.4533" y2="161.2543">
		<stop  offset="7.122930e-02" style="stop-color:#FFF7F6"/>
		<stop  offset="0.289" style="stop-color:#F1D2A7"/>
		<stop  offset="0.5256" style="stop-color:#B98C71"/>
		<stop  offset="0.8667" style="stop-color:#DAB572"/>
	</linearGradient>
	<polygon class="st33" points="508.3,151.7 388.3,156.9 388.3,170.9 508.3,167.9 509.5,167.7 509.5,151.6 	"/>
	<g class="st34">
		<image style="overflow:visible;" width="690" height="439" xlink:href="EE868F1E.png"  transform="matrix(1 0 0 1 -30 -11)">
		</image>
	</g>
	<g class="st35">
		<image style="overflow:visible;" width="690" height="439" xlink:href="EE868F1D.png"  transform="matrix(1 0 0 1 -30 -11)">
		</image>
	</g>
	<linearGradient id="SVGID_30_" gradientUnits="userSpaceOnUse" x1="262.8982" y1="59.3934" x2="195.8981" y2="154.3936">
		<stop  offset="0" style="stop-color:#FFFFFF"/>
		<stop  offset="1" style="stop-color:#FFFFFF;stop-opacity:0"/>
	</linearGradient>
	<polygon class="st36" points="256.1,156.9 272.5,63.9 135.8,151.7 	"/>
	<linearGradient id="SVGID_31_" gradientUnits="userSpaceOnUse" x1="344.6595" y1="270.8736" x2="418.6592" y2="290.8735">
		<stop  offset="0" style="stop-color:#B5A18B"/>
		<stop  offset="1" style="stop-color:#FFFFFF;stop-opacity:0"/>
	</linearGradient>
	<polygon class="st37" points="321.8,411.9 508.3,167.9 388.3,170.9 	"/>
	<linearGradient id="SVGID_32_" gradientUnits="userSpaceOnUse" x1="373.9706" y1="-5.6647" x2="365.9706" y2="70.3352">
		<stop  offset="0" style="stop-color:#B5A18B"/>
		<stop  offset="1" style="stop-color:#FFFFFF;stop-opacity:0"/>
	</linearGradient>
	<polygon class="st38" points="272.5,63.9 354.5,29.6 461.1,61.2 	"/>
	<linearGradient id="SVGID_33_" gradientUnits="userSpaceOnUse" x1="59.3434" y1="42.0735" x2="95.3431" y2="132.0729">
		<stop  offset="0" style="stop-color:#B5A18B"/>
		<stop  offset="1" style="stop-color:#FFFFFF;stop-opacity:0"/>
	</linearGradient>
	<polygon class="st39" points="135.8,151.7 117.1,55.6 47.3,142.9 	"/>
	<linearGradient id="SVGID_34_" gradientUnits="userSpaceOnUse" x1="215.6489" y1="295.8076" x2="335.6481" y2="241.8081">
		<stop  offset="0" style="stop-color:#B5A18B"/>
		<stop  offset="3.701854e-02" style="stop-color:#BDAB98;stop-opacity:0.963"/>
		<stop  offset="0.1434" style="stop-color:#D1C5B8;stop-opacity:0.8566"/>
		<stop  offset="0.2593" style="stop-color:#E2DAD2;stop-opacity:0.7407"/>
		<stop  offset="0.3865" style="stop-color:#EFEBE6;stop-opacity:0.6135"/>
		<stop  offset="0.5305" style="stop-color:#F8F6F4;stop-opacity:0.4695"/>
		<stop  offset="0.7058" style="stop-color:#FDFDFC;stop-opacity:0.2942"/>
		<stop  offset="1" style="stop-color:#FFFFFF;stop-opacity:0"/>
	</linearGradient>
	<polygon class="st40" points="135.8,167.9 254.8,170.9 321.8,411.9 	"/>
	<polygon class="st41" points="596.8,156.9 639.1,147.9 321.8,411.9 	"/>
	<polygon class="st41" points="4,146.6 47.3,156.9 321.8,411.9 	"/>
	<g>
		<polygon class="st42" points="4,146.6 47.3,156.9 321.8,411.9 		"/>
		<polygon class="st42" points="47.3,156.9 135.8,167.9 321.8,411.9 		"/>
		<polygon class="st42" points="135.8,167.9 254.8,170.9 321.8,411.9 		"/>
		<polygon class="st42" points="254.8,170.9 388.3,170.9 321.8,411.9 		"/>
		<polygon class="st42" points="321.8,411.9 508.3,167.9 388.3,170.9 		"/>
		<polygon class="st42" points="508.3,167.9 596.8,156.9 321.8,411.9 		"/>
		<polygon class="st42" points="596.8,156.9 639.1,147.9 321.8,411.9 		"/>
		<polygon class="st42" points="5.6,131.8 117.1,55.6 47.3,142.9 		"/>
		<polygon class="st42" points="135.8,151.7 117.1,55.6 47.3,142.9 		"/>
		<polygon class="st42" points="117.1,55.6 272.5,63.9 135.8,151.7 		"/>
		<polygon class="st42" points="256.1,156.9 272.5,63.9 135.8,151.7 		"/>
		<polygon class="st42" points="272.5,63.9 388.3,156.9 256.1,156.9 		"/>
		<polygon class="st42" points="272.5,63.9 461.1,61.2 388.3,156.9 		"/>
		<polygon class="st42" points="461.1,61.2 508.3,151.7 388.3,156.9 		"/>
		<polygon class="st42" points="461.1,61.2 596.8,142.9 508.3,151.7 		"/>
		<polygon class="st42" points="461.1,61.2 561.1,49.9 596.8,142.9 		"/>
		<polygon class="st42" points="561.1,49.9 596.8,142.9 639.1,132.6 		"/>
		<polygon class="st42" points="561.1,49.9 596.8,142.9 639.1,132.6 		"/>
		<polygon class="st42" points="87.1,41.2 117.1,55.6 5.6,131.8 9,124.9 		"/>
		<polygon class="st42" points="117.1,55.6 231.1,27.9 272.5,63.9 		"/>
		<polygon class="st42" points="231.1,27.9 354.5,29.6 272.5,63.9 		"/>
		<polygon class="st42" points="272.5,63.9 354.5,29.6 461.1,61.2 		"/>
		<polygon class="st42" points="354.5,29.6 457.8,24.9 461.1,61.2 		"/>
		<polygon class="st42" points="457.8,24.9 561.1,49.9 461.1,61.2 		"/>
		<polygon class="st42" points="457.8,24.9 479.8,15.9 561.1,49.9 		"/>
		<polygon class="st42" points="117.1,55.6 162.9,19.6 231.1,27.9 		"/>
		<polygon class="st42" points="117.1,55.6 162.9,19.6 87.1,41.2 		"/>
		<polygon class="st42" points="162.9,19.6 231.1,27.9 354.5,29.6 457.8,24.9 479.8,15.9 412.5,8.6 305.8,8.6 190.5,11.2 		"/>
		<polygon class="st42" points="47.3,142.9 47.3,156.9 135.8,167.9 135.8,151.7 		"/>
		<polygon class="st42" points="596.8,142.9 596.8,156.9 639.1,147.9 639.1,132.6 		"/>
		<polygon class="st42" points="4,131.4 4,146.6 47.3,156.9 47.3,142.9 		"/>
		<polygon class="st42" points="254.8,156.9 135.8,151.7 135.8,167.9 254.8,170.9 256.1,170.9 256.1,156.9 		"/>
		<polygon class="st42" points="509.5,151.6 509.5,167.8 596.8,156.9 596.8,142.9 		"/>
		<rect x="256.1" y="156.9" class="st42" width="132.2" height="14"/>
		<polygon class="st42" points="508.3,151.7 388.3,156.9 388.3,170.9 508.3,167.9 509.5,167.8 509.5,151.6 		"/>
		<polygon class="st42" points="256.1,156.9 272.5,63.9 135.8,151.7 		"/>
		<polygon class="st42" points="321.8,411.9 508.3,167.9 388.3,170.9 		"/>
		<polygon class="st42" points="272.5,63.9 354.5,29.6 461.1,61.2 		"/>
		<polygon class="st42" points="135.8,151.7 117.1,55.6 47.3,142.9 		"/>
		<polygon class="st42" points="135.8,167.9 254.8,170.9 321.8,411.9 		"/>
	</g>
</g>
<linearGradient id="SVGID_35_" gradientUnits="userSpaceOnUse" x1="362.2953" y1="140.0693" x2="368.2954" y2="36.5745">
	<stop  offset="0.2366" style="stop-color:#FFF5F8"/>
	<stop  offset="0.7681" style="stop-color:#FFEED4"/>
</linearGradient>
<polygon class="st43" points="272.5,63.9 461.1,61.2 388.3,156.9 "/>
</svg>
