<?xml version="1.0" encoding="utf-8"?>
<!-- Generator: Adobe Illustrator 21.0.0, SVG Export Plug-In . SVG Version: 6.00 Build 0)  -->
<svg version="1.1" id="Objects" xmlns="http://www.w3.org/2000/svg" xmlns:xlink="http://www.w3.org/1999/xlink" x="0px" y="0px"
	 viewBox="0 0 76.7 79.7" style="enable-background:new 0 0 76.7 79.7;" xml:space="preserve">
<style type="text/css">
	.st0{fill:#F6E6B7;}
</style>
<path class="st0" d="M14.9,72.2c0,0-0.1,0-0.1,0c-2.1-2.1-4.1-4.2-6.3-6.4c8.4-8.4,16.7-16.7,25-25c-8.3-8.3-16.6-16.6-24.8-24.8
	c2.1-2.1,4.1-4.1,6.3-6.3c8.3,8.3,16.6,16.6,24.9,24.9c8.3-8.3,16.6-16.6,25.1-25.1c2.1,2.1,4.1,4.2,6.2,6.3c0,0,0,0.1,0,0.1
	c-0.2,0.1-0.3,0.2-0.5,0.4c-8,8-16.1,16.1-24.1,24.1c-0.1,0.1-0.3,0.3-0.4,0.5c0.2,0.2,0.3,0.3,0.4,0.5c8,8,16.1,16.1,24.1,24.1
	c0.1,0.1,0.3,0.2,0.5,0.4c0,0,0,0.1,0,0.1C69,68,67,70.1,64.9,72.2c0,0-0.1,0-0.1,0c-0.1-0.2-0.2-0.3-0.4-0.5
	c-8-8-16.1-16.1-24.1-24.1c-0.1-0.1-0.3-0.3-0.5-0.4c-0.2,0.2-0.3,0.3-0.5,0.4c-8,8-16.1,16.1-24.1,24.1C15.1,71.8,15,72,14.9,72.2z
	"/>
</svg>
