<?xml version="1.0" encoding="utf-8"?>
<!-- Generator: Adobe Illustrator 21.0.0, SVG Export Plug-In . SVG Version: 6.00 Build 0)  -->
<svg version="1.1" id="Objects" xmlns="http://www.w3.org/2000/svg" xmlns:xlink="http://www.w3.org/1999/xlink" x="0px" y="0px"
	 viewBox="0 0 66 86" style="enable-background:new 0 0 66 86;" xml:space="preserve">
<style type="text/css">
	.st0{fill:#CECECE;}
</style>
<path class="st0" d="M14.1,24.5c0.2-1.1,0.3-2.2,0.5-3.3c1.6-7.9,8.1-14.1,16.1-15.1c7.1-0.9,12.9,1.4,17.6,6.8c1,1.2,1.5,2.5,1,4
	c-0.5,1.4-1.4,2.3-2.9,2.7c-1.5,0.3-2.9-0.1-3.9-1.3c-1-1.3-2.2-2.4-3.7-3.2c-7.2-3.9-16.1,0.9-16.7,9.1c0,0.1,0,0.1,0,0.2
	c0.2,0,0.5,0,0.7,0c11,0,22.1,0,33.1,0c2.7,0,4.2,1.5,4.2,4.2c0,15.1,0,30.3,0,45.4c0,1.9-1.1,3.4-2.9,3.8c-0.4,0.1-0.8,0.1-1.1,0.1
	c-15.2,0-30.4,0-45.6,0c-2.5,0-4-1.6-4-4c0-15.2,0-30.3,0-45.5c0-2.5,1.6-4.1,4.1-4.1C11.8,24.5,12.9,24.5,14.1,24.5z M31.8,55.2
	c0,1,0,2.1,0,3.1c0,1.1,0.6,1.8,1.6,1.8c0.9,0,1.5-0.7,1.5-1.8c0-2.1,0-4.2,0-6.3c0-0.4,0.1-0.6,0.5-0.7c2.1-1,3.1-3.3,2.4-5.5
	c-0.6-2.1-2.5-3.4-4.6-3.3c-2.1,0.1-3.9,1.6-4.4,3.6c-0.4,2.1,0.6,4.2,2.5,5.1c0.4,0.2,0.5,0.4,0.5,0.8
	C31.8,53.1,31.8,54.2,31.8,55.2z"/>
</svg>
