<?xml version="1.0" encoding="utf-8"?>
<!-- Generator: Adobe Illustrator 21.0.0, SVG Export Plug-In . SVG Version: 6.00 Build 0)  -->
<svg version="1.1" id="objects" xmlns="http://www.w3.org/2000/svg" xmlns:xlink="http://www.w3.org/1999/xlink" x="0px" y="0px"
	 viewBox="0 0 424 298" style="enable-background:new 0 0 424 298;" xml:space="preserve">
<style type="text/css">
	.st0{opacity:0.9;}
	.st1{fill:url(#SVGID_1_);}
	.st2{fill:url(#SVGID_2_);}
	.st3{fill:url(#SVGID_3_);}
	.st4{opacity:0.3;fill:url(#SVGID_4_);}
	.st5{opacity:0.3;fill:url(#SVGID_5_);}
	.st6{opacity:0.3;fill:url(#SVGID_6_);}
	.st7{fill:url(#SVGID_7_);}
	.st8{opacity:0.3;fill:url(#SVGID_8_);}
	.st9{opacity:0.3;fill:url(#SVGID_9_);}
	.st10{opacity:0.3;fill:url(#SVGID_10_);}
	.st11{fill:url(#SVGID_11_);}
	.st12{opacity:0.3;fill:url(#SVGID_12_);}
	.st13{opacity:0.3;fill:url(#SVGID_13_);}
	.st14{opacity:0.3;fill:url(#SVGID_14_);}
	.st15{fill:url(#SVGID_15_);}
	.st16{fill:url(#SVGID_16_);}
	.st17{fill:url(#SVGID_17_);}
	.st18{opacity:0.3;fill:url(#SVGID_18_);}
	.st19{fill:url(#SVGID_19_);}
	.st20{fill:url(#SVGID_20_);}
	.st21{opacity:0.3;fill:url(#SVGID_21_);}
	.st22{fill:url(#SVGID_22_);}
	.st23{opacity:0.3;fill:url(#SVGID_23_);}
	.st24{opacity:0.3;fill:url(#SVGID_24_);}
	.st25{fill:url(#SVGID_25_);}
	.st26{fill:url(#SVGID_26_);}
	.st27{fill:url(#SVGID_27_);}
	.st28{fill:url(#SVGID_28_);}
	.st29{fill:url(#SVGID_29_);}
	.st30{opacity:0.2;fill:url(#SVGID_30_);}
	.st31{fill:url(#SVGID_31_);}
	.st32{fill:url(#SVGID_32_);}
	.st33{opacity:0.3;fill:#FF80AD;}
	.st34{fill:url(#SVGID_33_);}
	.st35{opacity:0.3;fill:url(#SVGID_34_);}
	.st36{opacity:0.5;fill:url(#SVGID_35_);}
	.st37{opacity:0.5;fill:url(#SVGID_36_);}
	.st38{fill:url(#SVGID_37_);}
	.st39{fill:url(#SVGID_38_);}
	.st40{opacity:0.3;fill:url(#SVGID_39_);}
	.st41{opacity:0.3;fill:url(#SVGID_40_);}
	.st42{fill:url(#SVGID_41_);}
	.st43{opacity:0.3;fill:url(#SVGID_42_);}
	.st44{opacity:0.3;fill:url(#SVGID_43_);}
	.st45{fill:url(#SVGID_44_);}
	.st46{opacity:0.3;fill:url(#SVGID_45_);}
	.st47{fill:url(#SVGID_46_);}
	.st48{opacity:0.3;fill:url(#SVGID_47_);}
	.st49{opacity:0.3;fill:url(#SVGID_48_);}
	.st50{fill:url(#SVGID_49_);}
	.st51{fill:url(#SVGID_50_);}
</style>
<g class="st0">
	<linearGradient id="SVGID_1_" gradientUnits="userSpaceOnUse" x1="340.6955" y1="8.7434" x2="387.7512" y2="75.3316">
		<stop  offset="0" style="stop-color:#FF80AD"/>
		<stop  offset="1" style="stop-color:#9C0F42"/>
	</linearGradient>
	<polygon class="st1" points="341.3,9.1 361,74.4 413.1,74.4 	"/>
	<linearGradient id="SVGID_2_" gradientUnits="userSpaceOnUse" x1="332.2304" y1="14.9114" x2="368.1605" y2="65.7557">
		<stop  offset="0" style="stop-color:#FF80AD"/>
		<stop  offset="1" style="stop-color:#9C0F42"/>
	</linearGradient>
	<polygon class="st2" points="341.3,9.1 361,74.4 374.3,74.4 	"/>
	<linearGradient id="SVGID_3_" gradientUnits="userSpaceOnUse" x1="290.7077" y1="143.1235" x2="413.127" y2="143.1235">
		<stop  offset="0" style="stop-color:#FF4084"/>
		<stop  offset="1" style="stop-color:#FF80AD"/>
	</linearGradient>
	<polygon class="st3" points="361,74.4 290.7,211.9 413.1,74.4 	"/>
	<linearGradient id="SVGID_4_" gradientUnits="userSpaceOnUse" x1="290.7077" y1="143.1235" x2="374.3026" y2="143.1235">
		<stop  offset="0" style="stop-color:#FF4084"/>
		<stop  offset="1" style="stop-color:#FF80AD"/>
	</linearGradient>
	<polygon class="st4" points="361,74.4 290.7,211.9 374.3,74.4 	"/>
	<linearGradient id="SVGID_5_" gradientUnits="userSpaceOnUse" x1="290.7075" y1="95.1003" x2="413.127" y2="95.1003">
		<stop  offset="0" style="stop-color:#FF4084"/>
		<stop  offset="1" style="stop-color:#FF80AD"/>
	</linearGradient>
	<path class="st5" d="M376.2,115.8l36.9-41.4H361l-8.9,17.4C360.2,99.8,368.2,107.8,376.2,115.8z"/>
	<linearGradient id="SVGID_6_" gradientUnits="userSpaceOnUse" x1="290.7077" y1="173.5515" x2="413.127" y2="173.5515">
		<stop  offset="0" style="stop-color:#FF4084"/>
		<stop  offset="1" style="stop-color:#FF80AD"/>
	</linearGradient>
	<path class="st6" d="M329.9,135.2l-39.2,76.6l54.6-61.3C340.1,145.5,335,140.4,329.9,135.2z"/>
	<linearGradient id="SVGID_7_" gradientUnits="userSpaceOnUse" x1="360.7587" y1="75.5735" x2="212.3162" y2="292.3261">
		<stop  offset="0" style="stop-color:#FF80AD"/>
		<stop  offset="1" style="stop-color:#9C0F42"/>
	</linearGradient>
	<polygon class="st7" points="361,74.4 239,219.4 212.3,293.4 290.7,211.9 	"/>
	<linearGradient id="SVGID_8_" gradientUnits="userSpaceOnUse" x1="359.4067" y1="74.251" x2="253.645" y2="228.6819">
		<stop  offset="0" style="stop-color:#FF80AD"/>
		<stop  offset="1" style="stop-color:#9C0F42"/>
	</linearGradient>
	<polygon class="st8" points="361,74.4 239,219.4 304,185.8 	"/>
	<linearGradient id="SVGID_9_" gradientUnits="userSpaceOnUse" x1="358.8796" y1="74.2864" x2="210.4371" y2="291.0391">
		<stop  offset="0" style="stop-color:#FF80AD"/>
		<stop  offset="1" style="stop-color:#9C0F42"/>
	</linearGradient>
	<path class="st9" d="M247.2,209.6l-8.3,9.8l-26.7,74l59.3-61.6C261.7,226.6,253.3,218.9,247.2,209.6z"/>
	<linearGradient id="SVGID_10_" gradientUnits="userSpaceOnUse" x1="360.9983" y1="75.7375" x2="212.556" y2="292.4898">
		<stop  offset="0" style="stop-color:#FF80AD"/>
		<stop  offset="1" style="stop-color:#9C0F42"/>
	</linearGradient>
	<path class="st10" d="M335.8,123.8L361,74.4l-36.4,43.2C328.6,119.3,332.3,121.4,335.8,123.8z"/>
	<linearGradient id="SVGID_11_" gradientUnits="userSpaceOnUse" x1="241.1689" y1="220.1099" x2="323.7383" y2="78.0552">
		<stop  offset="0" style="stop-color:#FF4084"/>
		<stop  offset="1" style="stop-color:#FF80AD"/>
	</linearGradient>
	<polygon class="st11" points="239,219.4 290.7,74.4 361,74.4 	"/>
	<linearGradient id="SVGID_12_" gradientUnits="userSpaceOnUse" x1="227.0175" y1="211.9623" x2="298.6177" y2="88.7793">
		<stop  offset="0" style="stop-color:#FF4084"/>
		<stop  offset="1" style="stop-color:#FF80AD"/>
	</linearGradient>
	<polygon class="st12" points="239,219.4 290.7,74.4 311.7,74.4 	"/>
	<linearGradient id="SVGID_13_" gradientUnits="userSpaceOnUse" x1="256.0879" y1="228.7817" x2="338.6572" y2="86.7271">
		<stop  offset="0" style="stop-color:#FF4084"/>
		<stop  offset="1" style="stop-color:#FF80AD"/>
	</linearGradient>
	<polygon class="st13" points="330.6,74.4 330.6,110.5 361,74.4 	"/>
	<linearGradient id="SVGID_14_" gradientUnits="userSpaceOnUse" x1="233.8211" y1="215.839" x2="316.3905" y2="73.7841">
		<stop  offset="0" style="stop-color:#FF4084"/>
		<stop  offset="1" style="stop-color:#FF80AD"/>
	</linearGradient>
	<polygon class="st14" points="284.1,92.8 239,219.4 284.1,165.7 	"/>
	<linearGradient id="SVGID_15_" gradientUnits="userSpaceOnUse" x1="342.2532" y1="87.0663" x2="259.6839" y2="23.1417">
		<stop  offset="0" style="stop-color:#FF80AD"/>
		<stop  offset="1" style="stop-color:#9C0F42"/>
	</linearGradient>
	<polygon class="st15" points="290.7,74.4 271,9.1 361,74.4 	"/>
	<linearGradient id="SVGID_16_" gradientUnits="userSpaceOnUse" x1="342.4537" y1="86.8073" x2="259.8846" y2="22.8828">
		<stop  offset="0" style="stop-color:#FF80AD"/>
		<stop  offset="1" style="stop-color:#9C0F42"/>
	</linearGradient>
	<path class="st16" d="M319.2,44.1c-5.8,12.7-15.5,23.3-27.5,30.3H361L319.2,44.1z"/>
	<linearGradient id="SVGID_17_" gradientUnits="userSpaceOnUse" x1="316.0197" y1="72.0255" x2="316.0197" y2="9.8882">
		<stop  offset="0" style="stop-color:#FF4084"/>
		<stop  offset="1" style="stop-color:#7D0C35"/>
	</linearGradient>
	<polygon class="st17" points="271,9.1 341.3,9.1 361,74.4 	"/>
	<linearGradient id="SVGID_18_" gradientUnits="userSpaceOnUse" x1="316.0197" y1="72.0255" x2="316.0197" y2="9.8882">
		<stop  offset="0" style="stop-color:#FF4084"/>
		<stop  offset="1" style="stop-color:#7D0C35"/>
	</linearGradient>
	<polygon class="st18" points="271,9.1 286.6,9.1 361,74.4 	"/>
	<linearGradient id="SVGID_19_" gradientUnits="userSpaceOnUse" x1="235.8098" y1="90.2429" x2="293.5195" y2="28.094">
		<stop  offset="0" style="stop-color:#FFE6EF"/>
		<stop  offset="1" style="stop-color:#FF80AD"/>
	</linearGradient>
	<polygon class="st19" points="271,9.1 212.3,74.4 290.7,74.4 	"/>
	<linearGradient id="SVGID_20_" gradientUnits="userSpaceOnUse" x1="241.6275" y1="72.0255" x2="241.6275" y2="9.8882">
		<stop  offset="0" style="stop-color:#FF4084"/>
		<stop  offset="1" style="stop-color:#7D0C35"/>
	</linearGradient>
	<polygon class="st20" points="212.3,74.4 212.3,9.1 271,9.1 	"/>
	<linearGradient id="SVGID_21_" gradientUnits="userSpaceOnUse" x1="241.6275" y1="72.0255" x2="241.6275" y2="9.8882">
		<stop  offset="0" style="stop-color:#FF4084"/>
		<stop  offset="1" style="stop-color:#7D0C35"/>
	</linearGradient>
	<polygon class="st21" points="212.3,74.4 251.5,9.1 271,9.1 	"/>
	<linearGradient id="SVGID_22_" gradientUnits="userSpaceOnUse" x1="251.4799" y1="74.3841" x2="251.4799" y2="218.3898">
		<stop  offset="0" style="stop-color:#FF80AD"/>
		<stop  offset="1" style="stop-color:#9C0F42"/>
	</linearGradient>
	<polygon class="st22" points="212.3,74.4 239,219.4 290.7,74.4 	"/>
	<linearGradient id="SVGID_23_" gradientUnits="userSpaceOnUse" x1="264.791" y1="74.3841" x2="264.791" y2="218.3898">
		<stop  offset="0" style="stop-color:#FF80AD"/>
		<stop  offset="1" style="stop-color:#9C0F42"/>
	</linearGradient>
	<polygon class="st23" points="270.7,74.4 239,219.4 290.6,74.4 	"/>
	<linearGradient id="SVGID_24_" gradientUnits="userSpaceOnUse" x1="261.4343" y1="74.3841" x2="261.4343" y2="218.39">
		<stop  offset="0" style="stop-color:#FF80AD"/>
		<stop  offset="1" style="stop-color:#9C0F42"/>
	</linearGradient>
	<path class="st24" d="M275.3,117.5l15.4-43.2h-58.5C246.5,88.8,260.9,103.2,275.3,117.5z"/>
	<linearGradient id="SVGID_25_" gradientUnits="userSpaceOnUse" x1="225.6077" y1="291.9956" x2="225.6077" y2="75.7314">
		<stop  offset="0" style="stop-color:#FF80AD"/>
		<stop  offset="1" style="stop-color:#FF4084"/>
	</linearGradient>
	<polygon class="st25" points="212.3,74.4 212.3,293.4 239,219.4 	"/>
	<linearGradient id="SVGID_26_" gradientUnits="userSpaceOnUse" x1="11.3773" y1="41.7323" x2="83.1726" y2="41.7323">
		<stop  offset="0" style="stop-color:#FFE6EF"/>
		<stop  offset="1" style="stop-color:#FF80AD"/>
	</linearGradient>
	<polygon class="st26" points="83.2,9.1 63.5,74.4 11.4,74.4 	"/>
	<linearGradient id="SVGID_27_" gradientUnits="userSpaceOnUse" x1="55.0154" y1="41.7323" x2="83.1726" y2="41.7323">
		<stop  offset="0" style="stop-color:#FFE6EF"/>
		<stop  offset="1" style="stop-color:#FF80AD"/>
	</linearGradient>
	<polygon class="st27" points="83.2,9.1 63.5,74.4 55,74.4 	"/>
	<linearGradient id="SVGID_28_" gradientUnits="userSpaceOnUse" x1="11.3773" y1="143.1235" x2="133.7966" y2="143.1235">
		<stop  offset="0" style="stop-color:#FF80AD"/>
		<stop  offset="1" style="stop-color:#9C0F42"/>
	</linearGradient>
	<polygon class="st28" points="63.5,74.4 133.8,211.9 11.4,74.4 	"/>
	<linearGradient id="SVGID_29_" gradientUnits="userSpaceOnUse" x1="55.0154" y1="143.1235" x2="133.7966" y2="143.1235">
		<stop  offset="0" style="stop-color:#FF80AD"/>
		<stop  offset="1" style="stop-color:#9C0F42"/>
	</linearGradient>
	<polygon class="st29" points="63.5,74.4 133.8,211.9 55,74.4 	"/>
	<linearGradient id="SVGID_30_" gradientUnits="userSpaceOnUse" x1="11.3773" y1="168.1668" x2="133.7964" y2="168.1668">
		<stop  offset="0" style="stop-color:#FF80AD"/>
		<stop  offset="1" style="stop-color:#9C0F42"/>
	</linearGradient>
	<path class="st30" d="M89.1,124.5c-5.5,6.2-12.1,11.4-19.6,15.2l64.3,72.2L89.1,124.5z"/>
	<linearGradient id="SVGID_31_" gradientUnits="userSpaceOnUse" x1="60.7867" y1="71.81" x2="212.506" y2="292.4929">
		<stop  offset="0" style="stop-color:#FFE6EF"/>
		<stop  offset="1" style="stop-color:#FF80AD"/>
	</linearGradient>
	<polygon class="st31" points="63.5,74.4 185.5,219.4 212.3,293.4 133.8,211.9 	"/>
	<linearGradient id="SVGID_32_" gradientUnits="userSpaceOnUse" x1="68.3947" y1="66.5795" x2="220.114" y2="287.2623">
		<stop  offset="0" style="stop-color:#FFE6EF"/>
		<stop  offset="1" style="stop-color:#FF80AD"/>
	</linearGradient>
	<polygon class="st32" points="63.5,74.4 185.5,219.4 212.3,293.4 173,228.3 	"/>
	<path class="st33" d="M185.5,219.4c-0.5,13.8-2.3,27.4-5.3,40.7l32,33.3L185.5,219.4z"/>
	<linearGradient id="SVGID_33_" gradientUnits="userSpaceOnUse" x1="179.2646" y1="216.8347" x2="99.3588" y2="75.6678">
		<stop  offset="0" style="stop-color:#FF80AD"/>
		<stop  offset="1" style="stop-color:#FF4084"/>
	</linearGradient>
	<polygon class="st34" points="185.5,219.4 133.8,74.4 63.5,74.4 	"/>
	<linearGradient id="SVGID_34_" gradientUnits="userSpaceOnUse" x1="194.767" y1="208.9062" x2="125.8907" y2="87.2246">
		<stop  offset="0" style="stop-color:#FF80AD"/>
		<stop  offset="1" style="stop-color:#FF4084"/>
	</linearGradient>
	<polygon class="st35" points="185.5,219.4 133.8,74.4 115.7,74.4 	"/>
	<linearGradient id="SVGID_35_" gradientUnits="userSpaceOnUse" x1="176.354" y1="218.4821" x2="96.4483" y2="77.3154">
		<stop  offset="0" style="stop-color:#FF80AD"/>
		<stop  offset="1" style="stop-color:#FF4084"/>
	</linearGradient>
	<path class="st36" d="M126.1,74.4H63.5l28.6,34C103.4,97.1,114.8,85.7,126.1,74.4z"/>
	<linearGradient id="SVGID_36_" gradientUnits="userSpaceOnUse" x1="183.0553" y1="214.6891" x2="103.1496" y2="73.5223">
		<stop  offset="0" style="stop-color:#FF80AD"/>
		<stop  offset="1" style="stop-color:#FF4084"/>
	</linearGradient>
	<polygon class="st37" points="147.5,174.3 185.5,219.4 163.7,158.1 	"/>
	<linearGradient id="SVGID_37_" gradientUnits="userSpaceOnUse" x1="75.3909" y1="91.2646" x2="159.7359" y2="30.0035">
		<stop  offset="0" style="stop-color:#FFE6EF"/>
		<stop  offset="1" style="stop-color:#FF80AD"/>
	</linearGradient>
	<polygon class="st38" points="133.8,74.4 153.5,9.1 63.5,74.4 	"/>
	<linearGradient id="SVGID_38_" gradientUnits="userSpaceOnUse" x1="108.4846" y1="72.0255" x2="108.4846" y2="9.8882">
		<stop  offset="0" style="stop-color:#FF4084"/>
		<stop  offset="1" style="stop-color:#7D0C35"/>
	</linearGradient>
	<polygon class="st39" points="153.5,9.1 83.2,9.1 63.5,74.4 	"/>
	<linearGradient id="SVGID_39_" gradientUnits="userSpaceOnUse" x1="108.4846" y1="72.0255" x2="108.4846" y2="9.8882">
		<stop  offset="0" style="stop-color:#FF4084"/>
		<stop  offset="1" style="stop-color:#7D0C35"/>
	</linearGradient>
	<polygon class="st40" points="153.5,9.1 137.9,9.1 63.5,74.4 	"/>
	<linearGradient id="SVGID_40_" gradientUnits="userSpaceOnUse" x1="89.5758" y1="72.0255" x2="89.5758" y2="9.8884">
		<stop  offset="0" style="stop-color:#FF4084"/>
		<stop  offset="1" style="stop-color:#7D0C35"/>
	</linearGradient>
	<path class="st41" d="M80.7,17.1L63.5,74.4l52.2-37.9C101.8,34.7,89.4,27.5,80.7,17.1z"/>
	<linearGradient id="SVGID_41_" gradientUnits="userSpaceOnUse" x1="183.649" y1="40.9279" x2="141.0325" y2="85.32">
		<stop  offset="0" style="stop-color:#FF80AD"/>
		<stop  offset="1" style="stop-color:#FF4084"/>
	</linearGradient>
	<polygon class="st42" points="153.5,9.1 212.3,74.4 133.8,74.4 	"/>
	<linearGradient id="SVGID_42_" gradientUnits="userSpaceOnUse" x1="204.093" y1="60.554" x2="161.4766" y2="104.946">
		<stop  offset="0" style="stop-color:#FF80AD"/>
		<stop  offset="1" style="stop-color:#FF4084"/>
	</linearGradient>
	<path class="st43" d="M212.3,74.4l-20.3-22.6c-7.5,7.5-15,15-22.6,22.6H212.3z"/>
	<linearGradient id="SVGID_43_" gradientUnits="userSpaceOnUse" x1="161.2297" y1="19.4053" x2="118.6134" y2="63.7972">
		<stop  offset="0" style="stop-color:#FF80AD"/>
		<stop  offset="1" style="stop-color:#FF4084"/>
	</linearGradient>
	<polygon class="st44" points="170.6,28.1 153.5,9.1 137.9,60.7 	"/>
	<linearGradient id="SVGID_44_" gradientUnits="userSpaceOnUse" x1="182.8767" y1="70.0551" x2="182.8767" y2="8.3331">
		<stop  offset="0" style="stop-color:#FF80AD"/>
		<stop  offset="1" style="stop-color:#FF2472"/>
	</linearGradient>
	<polygon class="st45" points="212.3,74.4 212.3,9.1 153.5,9.1 	"/>
	<linearGradient id="SVGID_45_" gradientUnits="userSpaceOnUse" x1="207.3697" y1="70.0551" x2="207.3697" y2="8.3331">
		<stop  offset="0" style="stop-color:#FF80AD"/>
		<stop  offset="1" style="stop-color:#FF2472"/>
	</linearGradient>
	<polygon class="st46" points="212.3,74.4 212.3,9.1 202.5,9.1 	"/>
	<linearGradient id="SVGID_46_" gradientUnits="userSpaceOnUse" x1="173.1377" y1="75.1922" x2="193.558" y2="220.7982">
		<stop  offset="0" style="stop-color:#FF80AD"/>
		<stop  offset="1" style="stop-color:#9C0F42"/>
	</linearGradient>
	<polygon class="st47" points="212.3,74.4 185.5,219.4 133.8,74.4 	"/>
	<linearGradient id="SVGID_47_" gradientUnits="userSpaceOnUse" x1="189.6918" y1="81.2656" x2="208.9377" y2="218.4971">
		<stop  offset="0" style="stop-color:#FF80AD"/>
		<stop  offset="1" style="stop-color:#9C0F42"/>
	</linearGradient>
	<polygon class="st48" points="212.3,74.4 185.5,219.4 196.3,74.4 	"/>
	<linearGradient id="SVGID_48_" gradientUnits="userSpaceOnUse" x1="161.01" y1="76.893" x2="181.4303" y2="222.4993">
		<stop  offset="0" style="stop-color:#FF80AD"/>
		<stop  offset="1" style="stop-color:#9C0F42"/>
	</linearGradient>
	<path class="st49" d="M182,79.6c1.8-1.8,3.6-3.5,5.5-5.2h-53.7l17.5,49C158.9,107.2,169.3,92.4,182,79.6z"/>
	<linearGradient id="SVGID_49_" gradientUnits="userSpaceOnUse" x1="198.8965" y1="74.9811" x2="198.8965" y2="289.6733">
		<stop  offset="0" style="stop-color:#FFE6EF"/>
		<stop  offset="1" style="stop-color:#FF80AD"/>
	</linearGradient>
	<polygon class="st50" points="212.3,74.4 212.3,293.4 185.5,219.4 	"/>
	<linearGradient id="SVGID_50_" gradientUnits="userSpaceOnUse" x1="198.8965" y1="74.7795" x2="198.8965" y2="216.955">
		<stop  offset="0" style="stop-color:#FFE6EF"/>
		<stop  offset="1" style="stop-color:#FF80AD"/>
	</linearGradient>
	<polygon class="st51" points="212.3,74.4 212.3,138.5 185.5,219.4 	"/>
</g>
</svg>
