<?xml version="1.0" encoding="utf-8"?>
<!-- Generator: Adobe Illustrator 21.0.0, SVG Export Plug-In . SVG Version: 6.00 Build 0)  -->
<svg version="1.1" id="ARTBOARD_1" xmlns="http://www.w3.org/2000/svg" xmlns:xlink="http://www.w3.org/1999/xlink" x="0px" y="0px"
	 viewBox="0 0 302 199" style="enable-background:new 0 0 302 199;" xml:space="preserve">
<style type="text/css">
	.Graphic_x0020_Style_x0020_7{fill:url(#SVGID_1_);}
	.Graphic_x0020_Style_x0020_5{fill:url(#SVGID_2_);}
	.st0{fill:url(#SVGID_3_);}
	.st1{fill:url(#SVGID_4_);}
	.st2{fill:url(#SVGID_5_);}
	.st3{fill:#82DCF4;}
	.st4{fill:url(#SVGID_6_);}
	.st5{fill:url(#SVGID_7_);}
	.st6{fill:#CFEEF3;}
	.st7{fill:url(#SVGID_8_);}
	.st8{fill:url(#SVGID_9_);}
	.st9{fill:url(#SVGID_10_);}
	.st10{fill:url(#SVGID_11_);}
	.st11{fill:url(#SVGID_12_);}
	.st12{fill:url(#SVGID_13_);}
	.st13{fill:#3BC5E2;}
	.st14{fill:url(#SVGID_14_);}
	.st15{fill:url(#SVGID_15_);}
	.st16{fill:url(#SVGID_16_);}
	.st17{opacity:0.7;fill:url(#SVGID_17_);}
	.st18{clip-path:url(#SVGID_19_);fill:url(#SVGID_20_);}
	.st19{opacity:0.6;}
	.st20{fill:url(#SVGID_21_);}
	.st21{fill:url(#SVGID_22_);}
	.st22{fill:url(#SVGID_23_);}
	.st23{fill:url(#SVGID_24_);}
	.st24{fill:url(#SVGID_25_);}
	.st25{fill:url(#SVGID_26_);}
	.st26{fill:url(#SVGID_27_);}
	.st27{fill:url(#SVGID_28_);}
</style>
<linearGradient id="SVGID_1_" gradientUnits="userSpaceOnUse" x1="-123" y1="-292" x2="-123.0632" y2="-291.002">
	<stop  offset="0" style="stop-color:#21A8BA"/>
	<stop  offset="0.7211" style="stop-color:#9AD2CC"/>
</linearGradient>
<linearGradient id="SVGID_2_" gradientUnits="userSpaceOnUse" x1="-123" y1="-292" x2="-123.054" y2="-291.0015">
	<stop  offset="0" style="stop-color:#3BC5E2"/>
	<stop  offset="0.7211" style="stop-color:#CFEEF3"/>
</linearGradient>
<g>
	<linearGradient id="SVGID_3_" gradientUnits="userSpaceOnUse" x1="237.6271" y1="85.6604" x2="233.0162" y2="170.9668">
		<stop  offset="0" style="stop-color:#21A8BA"/>
		<stop  offset="0.7211" style="stop-color:#9AD2CC"/>
	</linearGradient>
	<path class="st0" d="M196.3,147.4l54.4-88H277C191.4,153.4,201.5,142.7,196.3,147.4z"/>
	<linearGradient id="SVGID_4_" gradientUnits="userSpaceOnUse" x1="66.1156" y1="86.3551" x2="61.8692" y2="164.9176">
		<stop  offset="0" style="stop-color:#21A8BA"/>
		<stop  offset="0.7211" style="stop-color:#9AD2CC"/>
	</linearGradient>
	<path class="st1" d="M24.8,59.4h26.3l54.4,88C100.3,142.6,110.4,153.5,24.8,59.4z"/>
	<linearGradient id="SVGID_5_" gradientUnits="userSpaceOnUse" x1="122.5697" y1="90.937" x2="118.7161" y2="151.8112">
		<stop  offset="0" style="stop-color:#21A8BA"/>
		<stop  offset="0.7211" style="stop-color:#9AD2CC"/>
	</linearGradient>
	<polygon class="st2" points="99.5,59.4 149.7,59.4 134.5,147 99.4,59.7 	"/>
	<polygon class="st3" points="100.1,57.4 109.9,26.3 148.1,57.4 	"/>
	<linearGradient id="SVGID_6_" gradientUnits="userSpaceOnUse" x1="175.1035" y1="94.2623" x2="171.25" y2="155.1363">
		<stop  offset="0" style="stop-color:#21A8BA"/>
		<stop  offset="0.7211" style="stop-color:#9AD2CC"/>
	</linearGradient>
	<polygon class="st4" points="202.4,59.4 202.5,59.7 167.3,147 152.1,59.4 	"/>
	<polygon class="st3" points="153.8,57.4 192,26.3 201.8,57.4 	"/>
	<linearGradient id="SVGID_7_" gradientUnits="userSpaceOnUse" x1="220.4222" y1="40.6387" x2="219.1334" y2="60.9976">
		<stop  offset="0" style="stop-color:#21A8BA"/>
		<stop  offset="0.7211" style="stop-color:#9AD2CC"/>
	</linearGradient>
	<polygon class="st5" points="194.2,26.8 246.4,57.4 203.9,57.4 	"/>
	<polygon class="st6" points="150.9,57.1 111.4,24.9 150.9,10.5 190.5,24.9 	"/>
	<linearGradient id="SVGID_8_" gradientUnits="userSpaceOnUse" x1="81.7235" y1="38.9343" x2="80.2668" y2="61.9459">
		<stop  offset="0" style="stop-color:#21A8BA"/>
		<stop  offset="0.7211" style="stop-color:#9AD2CC"/>
	</linearGradient>
	<polygon class="st7" points="98,57.4 55.4,57.4 107.6,26.8 	"/>
	<linearGradient id="SVGID_9_" gradientUnits="userSpaceOnUse" x1="93.8642" y1="85.1885" x2="89.6454" y2="163.2416">
		<stop  offset="0" style="stop-color:#3BC5E2"/>
		<stop  offset="0.7211" style="stop-color:#CFEEF3"/>
	</linearGradient>
	<path class="st8" d="M97.4,59.4c-0.2,0.6-2.3-4.9,34.5,86.4L54,59.4H97.4z"/>
	<linearGradient id="SVGID_10_" gradientUnits="userSpaceOnUse" x1="153.5361" y1="102.3594" x2="147.372" y2="216.4011">
		<stop  offset="0" style="stop-color:#3BC5E2"/>
		<stop  offset="0.7211" style="stop-color:#CFEEF3"/>
	</linearGradient>
	<polygon class="st9" points="150.9,64.3 165.9,150.6 150.9,187.8 136,150.6 	"/>
	<linearGradient id="SVGID_11_" gradientUnits="userSpaceOnUse" x1="209.8747" y1="85.1894" x2="205.3526" y2="168.8531">
		<stop  offset="0" style="stop-color:#3BC5E2"/>
		<stop  offset="0.7211" style="stop-color:#CFEEF3"/>
	</linearGradient>
	<path class="st10" d="M204.5,59.4h43.4L170,145.8C206.3,55.7,204.7,60.1,204.5,59.4z"/>
	<linearGradient id="SVGID_12_" gradientUnits="userSpaceOnUse" x1="262.278" y1="39.6863" x2="260.9446" y2="60.7492">
		<stop  offset="0" style="stop-color:#21A8BA"/>
		<stop  offset="0.7211" style="stop-color:#9AD2CC"/>
	</linearGradient>
	<polygon class="st11" points="251,57.4 247.3,26.1 277,57.4 	"/>
	<polygon class="st6" points="248.9,56.5 194.2,24.4 209.1,10.6 245.1,23.9 	"/>
	<polygon class="st3" points="192.3,23.4 156.6,10.5 206.3,10.5 	"/>
	<polygon class="st3" points="109.6,23.4 95.5,10.5 145.2,10.5 	"/>
	<polygon class="st6" points="107.7,24.4 53,56.5 56.8,23.9 92.7,10.6 	"/>
	<linearGradient id="SVGID_13_" gradientUnits="userSpaceOnUse" x1="39.907" y1="38.6738" x2="38.4832" y2="61.1659">
		<stop  offset="0" style="stop-color:#21A8BA"/>
		<stop  offset="0.7211" style="stop-color:#9AD2CC"/>
	</linearGradient>
	<polygon class="st12" points="50.8,57.4 24.9,57.4 54.5,26.1 	"/>
	<polygon class="st13" points="22.1,59.4 85.3,128.8 9.7,59.4 	"/>
	<linearGradient id="SVGID_14_" gradientUnits="userSpaceOnUse" x1="104.0497" y1="116.5169" x2="99.1734" y2="193.548">
		<stop  offset="0" style="stop-color:#21A8BA"/>
		<stop  offset="0.7211" style="stop-color:#9AD2CC"/>
	</linearGradient>
	<path class="st14" d="M58.4,67.4l75.6,83.9l14.3,35.5l-38-34.9C110.4,151.2,58.7,67.9,58.4,67.4z"/>
	<linearGradient id="SVGID_15_" gradientUnits="userSpaceOnUse" x1="199.2055" y1="115.4633" x2="193.8409" y2="200.2079">
		<stop  offset="0" style="stop-color:#21A8BA"/>
		<stop  offset="0.7211" style="stop-color:#9AD2CC"/>
	</linearGradient>
	<path class="st15" d="M167.8,151.2l75.6-83.9c-0.3,0.5-52,83.9-51.9,84.5l-38,34.9L167.8,151.2z"/>
	<polygon class="st13" points="279.7,59.4 292.1,59.4 216.6,128.8 	"/>
	<polygon class="st3" points="279.7,57.4 254.1,30.3 291.6,57.4 	"/>
	<polygon class="st3" points="239.4,19.7 214.5,10.5 226.7,10.5 	"/>
	<polygon class="st3" points="75.2,10.5 87.3,10.5 62.4,19.7 	"/>
	<polygon class="st3" points="47.8,30.3 22.1,57.4 10.3,57.4 	"/>
	
		<radialGradient id="SVGID_16_" cx="153.2321" cy="53.7298" r="154.891" gradientTransform="matrix(1 0 0 0.7715 0 12.2768)" gradientUnits="userSpaceOnUse">
		<stop  offset="0.4846" style="stop-color:#CFEEF3;stop-opacity:0"/>
		<stop  offset="1" style="stop-color:#2290CC"/>
	</radialGradient>
	<path class="st16" d="M227,8.5c-0.5,0-152.3-0.1-152.7,0.2c-0.2,0.1-67.6,48.9-67.8,49c0,0,0,0-0.1,0.1c-0.1,0.1-0.2,0.2-0.2,0.3
		c-0.1,0.2-0.1,0.3,0,0.4c0,0.2,0,0.2,0.1,0.2c0,0.1,0.1,0.2,0.2,0.3c0,0,0,0,0,0.1l143.8,132c0,0,0,0,0,0c0.1,0,0.1,0.1,0.2,0.1
		c0,0,0,0,0.1,0c0,0,0,0,0,0c0,0,0,0,0,0c0,0,0,0,0,0c0.1,0,0.2,0.1,0.3,0.1c0.1,0,0.2,0,0.3-0.1c0,0,0,0,0,0c0,0,0,0,0,0
		c0,0,0,0,0,0c0,0,0,0,0.1,0c0.1,0,0.1-0.1,0.2-0.1c0,0,0,0,0.1,0c0.4-0.4,144-132.1,144.1-132.7C295.8,57.5,227.6,8.5,227,8.5z"/>
	<linearGradient id="SVGID_17_" gradientUnits="userSpaceOnUse" x1="150.9204" y1="8.8982" x2="150.9204" y2="182.4813">
		<stop  offset="0.1774" style="stop-color:#F3FAFE"/>
		<stop  offset="0.4946" style="stop-color:#90D1F3"/>
		<stop  offset="0.6882" style="stop-color:#FFFFFF"/>
		<stop  offset="0.9301" style="stop-color:#90D1F3"/>
	</linearGradient>
	<path class="st17" d="M227,8.5c-0.5,0-152.3-0.1-152.7,0.2c-0.2,0.1-67.6,48.9-67.8,49c0,0,0,0-0.1,0.1c-0.1,0.1-0.2,0.2-0.2,0.3
		c-0.1,0.2-0.1,0.3,0,0.4c0,0.2,0,0.2,0.1,0.2c0,0.1,0.1,0.2,0.2,0.3c0,0,0,0,0,0.1l143.8,132c0,0,0,0,0,0c0.1,0,0.1,0.1,0.2,0.1
		c0,0,0,0,0.1,0c0,0,0,0,0,0c0,0,0,0,0,0c0,0,0,0,0,0c0.1,0,0.2,0.1,0.3,0.1c0.1,0,0.2,0,0.3-0.1c0,0,0,0,0,0c0,0,0,0,0,0
		c0,0,0,0,0,0c0,0,0,0,0.1,0c0.1,0,0.1-0.1,0.2-0.1c0,0,0,0,0.1,0c0.4-0.4,144-132.1,144.1-132.7C295.8,57.5,227.6,8.5,227,8.5z
		 M196.3,147.4l54.4-88H277C191.4,153.4,201.5,142.7,196.3,147.4z M24.8,59.4h26.3l54.4,88C100.3,142.6,110.4,153.5,24.8,59.4z
		 M99.5,59.4h50.3L134.5,147L99.4,59.7L99.5,59.4z M100.1,57.4l9.8-31.1l38.2,31.1H100.1z M202.4,59.4l0.1,0.3L167.3,147l-15.2-87.6
		H202.4z M153.8,57.4L192,26.3l9.8,31.1H153.8z M194.2,26.8l52.2,30.7h-42.6L194.2,26.8z M150.9,57.1l-39.5-32.2l39.5-14.4
		l39.6,14.4L150.9,57.1z M98,57.4H55.4l52.2-30.7L98,57.4z M97.4,59.4c-0.2,0.6-2.3-4.9,34.5,86.4L54,59.4H97.4z M150.9,64.3
		l15,86.3l-15,37.2l-15-37.2L150.9,64.3z M204.5,59.4h43.4L170,145.8C206.3,55.7,204.7,60.1,204.5,59.4z M251,57.4l-3.7-31.3
		L277,57.4H251z M248.9,56.5l-54.7-32.1l15-13.7l35.9,13.3L248.9,56.5z M192.3,23.4l-35.6-12.9h49.7L192.3,23.4z M109.6,23.4
		L95.5,10.5h49.7L109.6,23.4z M107.7,24.4L53,56.5l3.8-32.6l35.9-13.3L107.7,24.4z M50.8,57.4H24.9l29.6-31.3L50.8,57.4z M22.1,59.4
		l63.2,69.4L9.7,59.4H22.1z M58.4,67.4l75.6,83.9l14.3,35.5l-38-34.9C110.4,151.2,58.7,67.9,58.4,67.4z M167.8,151.2l75.6-83.9
		c-0.3,0.5-52,83.9-51.9,84.5l-38,34.9L167.8,151.2z M279.7,59.4h12.4l-75.6,69.4L279.7,59.4z M279.7,57.4l-25.7-27.1l37.5,27.1
		H279.7z M239.4,19.7l-24.9-9.2h12.2L239.4,19.7z M75.2,10.5h12.2l-24.9,9.2L75.2,10.5z M47.8,30.3L22.1,57.4H10.3L47.8,30.3z"/>
	<g>
		<defs>
			<path id="SVGID_18_" d="M227,8.5c-0.5,0-152.3-0.1-152.7,0.2c-0.2,0.1-67.6,48.9-67.8,49c0,0,0,0-0.1,0.1
				c-0.1,0.1-0.2,0.2-0.2,0.3c-0.1,0.2-0.1,0.3,0,0.4c0,0.2,0,0.2,0.1,0.2c0,0.1,0.1,0.2,0.2,0.3c0,0,0,0,0,0.1l143.8,132
				c0,0,0,0,0,0c0.1,0,0.1,0.1,0.2,0.1c0,0,0,0,0.1,0c0,0,0,0,0,0c0,0,0,0,0,0c0,0,0,0,0,0c0.1,0,0.2,0.1,0.3,0.1
				c0.1,0,0.2,0,0.3-0.1c0,0,0,0,0,0c0,0,0,0,0,0c0,0,0,0,0,0c0,0,0,0,0.1,0c0.1,0,0.1-0.1,0.2-0.1c0,0,0,0,0.1,0
				c0.4-0.4,144-132.1,144.1-132.7C295.8,57.5,227.6,8.5,227,8.5z"/>
		</defs>
		<clipPath id="SVGID_19_">
			<use xlink:href="#SVGID_18_"  style="overflow:visible;"/>
		</clipPath>
		<linearGradient id="SVGID_20_" gradientUnits="userSpaceOnUse" x1="138.9687" y1="84.5967" x2="134.6855" y2="152.2573">
			<stop  offset="0" style="stop-color:#CFEEF3;stop-opacity:0"/>
			<stop  offset="0.7211" style="stop-color:#CFEEF3"/>
		</linearGradient>
		<path class="st18" d="M39.7,127c0,0,58.3-66.9,225.2,20.4c54.7-71.9,76.8-116.3,76.8-116.3L-55.2,3.9L39.7,127z"/>
	</g>
</g>
<g>
	<g class="st19">
		
			<radialGradient id="SVGID_21_" cx="150.9276" cy="59.4204" r="70.0278" gradientTransform="matrix(1 0 0 0.8318 0 21.7156)" gradientUnits="userSpaceOnUse">
			<stop  offset="0" style="stop-color:#D0EDF5"/>
			<stop  offset="0.7211" style="stop-color:#0D806F;stop-opacity:0"/>
		</radialGradient>
		<ellipse class="st20" cx="150.9" cy="71.1" rx="72.4" ry="60.7"/>
		
			<radialGradient id="SVGID_22_" cx="150.9303" cy="59.4183" r="35.8937" gradientTransform="matrix(1 0 0 0.8318 0 21.7156)" gradientUnits="userSpaceOnUse">
			<stop  offset="0" style="stop-color:#D0EDF5"/>
			<stop  offset="0.7211" style="stop-color:#0D806F;stop-opacity:0"/>
		</radialGradient>
		<ellipse class="st21" cx="150.9" cy="71.1" rx="37.1" ry="31.1"/>
	</g>
	<g class="st19">
		
			<radialGradient id="SVGID_23_" cx="150.9301" cy="59.4175" r="35.6872" gradientTransform="matrix(1 0 0 0.8318 0 21.7156)" gradientUnits="userSpaceOnUse">
			<stop  offset="0" style="stop-color:#D0EDF5"/>
			<stop  offset="0.7211" style="stop-color:#0D806F;stop-opacity:0"/>
		</radialGradient>
		<ellipse class="st22" cx="150.9" cy="71.1" rx="36.9" ry="30.9"/>
		
			<radialGradient id="SVGID_24_" cx="150.93" cy="59.4177" r="18.2911" gradientTransform="matrix(1 0 0 0.8318 0 21.7156)" gradientUnits="userSpaceOnUse">
			<stop  offset="0" style="stop-color:#D0EDF5"/>
			<stop  offset="0.7211" style="stop-color:#0D806F;stop-opacity:0"/>
		</radialGradient>
		<ellipse class="st23" cx="150.9" cy="71.1" rx="18.9" ry="15.8"/>
	</g>
</g>
<g>
	<g class="st19">
		
			<radialGradient id="SVGID_25_" cx="208.9328" cy="102.6081" r="45.7281" gradientTransform="matrix(1 0 0 0.9926 0 0.7563)" gradientUnits="userSpaceOnUse">
			<stop  offset="0" style="stop-color:#D0EDF5"/>
			<stop  offset="0.7211" style="stop-color:#0D806F;stop-opacity:0"/>
		</radialGradient>
		<ellipse class="st24" cx="208.9" cy="102.6" rx="47.3" ry="47.3"/>
		
			<radialGradient id="SVGID_26_" cx="208.9337" cy="102.6077" r="23.4385" gradientTransform="matrix(1 0 0 0.9926 0 0.7563)" gradientUnits="userSpaceOnUse">
			<stop  offset="0" style="stop-color:#D0EDF5"/>
			<stop  offset="0.7211" style="stop-color:#0D806F;stop-opacity:0"/>
		</radialGradient>
		<path class="st25" d="M233.2,102.6c0,13.4-10.8,24.2-24.2,24.2c-13.4,0-24.2-10.9-24.2-24.2c0-13.4,10.8-24.2,24.2-24.2
			C222.3,78.4,233.2,89.2,233.2,102.6z"/>
	</g>
	<g class="st19">
		
			<radialGradient id="SVGID_27_" cx="208.9332" cy="102.6077" r="23.3041" gradientTransform="matrix(1 0 0 0.9926 0 0.7563)" gradientUnits="userSpaceOnUse">
			<stop  offset="0" style="stop-color:#D0EDF5"/>
			<stop  offset="0.7211" style="stop-color:#0D806F;stop-opacity:0"/>
		</radialGradient>
		<ellipse class="st26" cx="208.9" cy="102.6" rx="24.1" ry="24.1"/>
		
			<radialGradient id="SVGID_28_" cx="208.9371" cy="102.6077" r="11.9452" gradientTransform="matrix(1 0 0 0.9926 0 0.7563)" gradientUnits="userSpaceOnUse">
			<stop  offset="0" style="stop-color:#D0EDF5"/>
			<stop  offset="0.7211" style="stop-color:#0D806F;stop-opacity:0"/>
		</radialGradient>
		<path class="st27" d="M221.3,102.6c0,6.8-5.5,12.3-12.3,12.3c-6.8,0-12.3-5.5-12.3-12.3c0-6.8,5.5-12.3,12.3-12.3
			C215.8,90.3,221.3,95.8,221.3,102.6z"/>
	</g>
</g>
</svg>
