<?xml version="1.0" encoding="utf-8"?>
<!-- Generator: Adobe Illustrator 21.0.0, SVG Export Plug-In . SVG Version: 6.00 Build 0)  -->
<svg version="1.1" id="Objects" xmlns="http://www.w3.org/2000/svg" xmlns:xlink="http://www.w3.org/1999/xlink" x="0px" y="0px"
	 viewBox="0 0 59.7 39" style="enable-background:new 0 0 59.7 39;" xml:space="preserve">
<style type="text/css">
	.st0{fill:#F6E6B7;}
	.st1{opacity:0.65;fill:#F6E6B7;}
	.st2{opacity:0.25;fill:#F6E6B7;}
</style>
<path class="st0" d="M19.4,35.6c-0.3-0.2-0.6-0.4-0.8-0.6c-5-5-9.9-10-14.9-15c-0.8-0.8-0.8-1.5,0-2.2c5-5,10-10,14.9-15.1
	C19,2.3,19.5,2,20,2.1c0.5,0.1,0.8,0.4,1,0.9c0.2,0.5,0,1-0.3,1.4c-1.5,1.6-3,3.1-4.5,4.7c-3,3.1-6,6.3-9.1,9.4
	c-0.1,0.1-0.2,0.2-0.3,0.3C6.9,18.9,7,19,7.1,19.1c4.5,4.7,9,9.4,13.6,14.1c0.7,0.7,0.6,1.6-0.1,2.1c-0.1,0.1-0.3,0.2-0.5,0.3
	C19.9,35.6,19.7,35.6,19.4,35.6z"/>
<path class="st1" d="M35.4,35.6c-0.3-0.2-0.6-0.4-0.8-0.6c-5-5-9.9-10-14.9-15c-0.8-0.8-0.8-1.5,0-2.2c5-5,10-10,14.9-15.1
	C35,2.3,35.5,2,36,2.1c0.5,0.1,0.8,0.4,1,0.9c0.2,0.5,0,1-0.3,1.4c-1.5,1.6-3,3.1-4.5,4.7c-3,3.1-6,6.3-9.1,9.4
	c-0.1,0.1-0.2,0.2-0.3,0.3c0.1,0.1,0.2,0.2,0.3,0.3c4.5,4.7,9,9.4,13.6,14.1c0.7,0.7,0.6,1.6-0.1,2.1c-0.1,0.1-0.3,0.2-0.5,0.3
	C35.9,35.6,35.7,35.6,35.4,35.6z"/>
<path class="st2" d="M51.4,35.6c-0.3-0.2-0.6-0.4-0.8-0.6c-5-5-9.9-10-14.9-15c-0.8-0.8-0.8-1.5,0-2.2c5-5,10-10,14.9-15.1
	C51,2.3,51.5,2,52,2.1c0.5,0.1,0.8,0.4,1,0.9c0.2,0.5,0,1-0.3,1.4c-1.5,1.6-3,3.1-4.5,4.7c-3,3.1-6,6.3-9.1,9.4
	c-0.1,0.1-0.2,0.2-0.3,0.3c0.1,0.1,0.2,0.2,0.3,0.3c4.5,4.7,9,9.4,13.6,14.1c0.7,0.7,0.6,1.6-0.1,2.1c-0.1,0.1-0.3,0.2-0.5,0.3
	C51.9,35.6,51.7,35.6,51.4,35.6z"/>
</svg>
