<?xml version="1.0" encoding="utf-8"?>
<!-- Generator: Adobe Illustrator 21.0.0, SVG Export Plug-In . SVG Version: 6.00 Build 0)  -->
<svg version="1.1" id="Objects" xmlns="http://www.w3.org/2000/svg" xmlns:xlink="http://www.w3.org/1999/xlink" x="0px" y="0px"
	 viewBox="0 0 69.3 62.7" style="enable-background:new 0 0 69.3 62.7;" xml:space="preserve">
<style type="text/css">
	.st0{fill:#FFFFFF;}
</style>
<path class="st0" d="M36,35.4C27.7,43.7,19.4,52,11.2,60.2c-0.9-0.9-1.8-1.7-2.6-2.6c8.2-8.2,16.4-16.4,24.6-24.6
	C25,24.6,16.7,16.4,8.5,8.1c1-1,1.8-1.8,2.7-2.7c8.2,8.2,16.5,16.5,24.8,24.8c8.3-8.3,16.5-16.5,24.7-24.7c0.9,0.9,1.7,1.7,2.6,2.6
	c-8.2,8.2-16.4,16.4-24.7,24.7c8.2,8.2,16.5,16.5,24.7,24.7c-0.9,0.9-1.7,1.7-2.6,2.5C52.5,51.9,44.2,43.7,36,35.4z"/>
</svg>
