<?xml version="1.0" encoding="utf-8"?>
<!-- Generator: Adobe Illustrator 21.0.0, SVG Export Plug-In . SVG Version: 6.00 Build 0)  -->
<svg version="1.1" id="Objects" xmlns="http://www.w3.org/2000/svg" xmlns:xlink="http://www.w3.org/1999/xlink" x="0px" y="0px"
	 viewBox="0 0 66.7 70.8" style="enable-background:new 0 0 66.7 70.8;" xml:space="preserve">
<style type="text/css">
	.st0{fill:#CECECE;}
</style>
<path class="st0" d="M59.3,66.5c-2.1-0.4-4.1-1.1-6.1-2.2c-1.1-0.4-2.3-0.8-3.3-1.4c-3.9-2.1-6.6-5.2-8-9.5
	c-0.3-0.9-0.4-1.8-0.2-2.7c0.1-0.4,0.2-0.8,0.5-1.1c1.5-1.9,2.4-4.1,3.1-6.4c0.3-1,0.5-1.9,0.8-2.9c0.1-0.5,0.4-1,0.8-1.3
	c0.4-0.3,0.9-0.7,1.3-1.1c1-0.9,1.6-2,1.7-3.3c0-0.1,0-0.3,0.1-0.3c0.7-0.9,0.7-2,0.6-3.1c-0.1-0.9-0.4-1.8-0.5-2.7
	c-0.1-1.4-0.1-2.8-0.2-4.2c-0.1-2.2,0-4.4-0.1-6.7c-0.1-3-1.4-5.6-3.4-7.9c-2.9-3.2-6.4-5.3-10.7-6C31.1,3.2,26.9,4.3,23,7
	c-1.9,1.3-3.5,3-4.8,4.9c-1.1,1.5-1.5,3.3-1.7,5.1c-0.2,2-0.2,4-0.4,6c0,0,0,0,0.1,0c0,1.6,0.1,3.2,0,4.8c-0.1,1.1-0.5,2.1-0.7,3.2
	c-0.2,1-0.3,1.9,0.3,2.8c0.3,0.5,0.5,1,0.6,1.6c0.1,0.9,0.6,1.7,1.3,2.3c0.4,0.3,0.9,0.7,1.3,1c0.6,0.4,0.9,1,1.1,1.7
	c0.5,2.2,1,4.4,2,6.4c0.5,1,1,1.9,1.8,2.7c0.9,0.9,1.2,2,0.7,3.2c-0.7,2-1.3,4-2.6,5.8c-1.8,2.3-4.1,3.9-6.7,5.2
	c-1.8,0.8-3.6,1.4-5.4,1.8c-1.3,0.4-2.6,0.8-4,1.1v1.4h53.5V66.5z"/>
</svg>
